HIERARCHY
ROOT hip
{
  OFFSET 0 0 0
  CHANNELS 6 Xposition Yposition Zposition Zrotation Yrotation Xrotation
  JOINT abdomen
  {
    OFFSET 0 20.6881 -0.73152
    CHANNELS 3 Zrotation Xrotation Yrotation
    JOINT chest
    {
      OFFSET 0 11.7043 -0.48768
      CHANNELS 3 Zrotation Xrotation Yrotation
      JOINT neck
      {
        OFFSET 0 22.1894 -2.19456
        CHANNELS 3 Zrotation Xrotation Yrotation
        JOINT head
        {
          OFFSET -0.24384 7.07133 1.2192
          CHANNELS 3 Zrotation Xrotation Yrotation
          JOINT leftEye
          {
            OFFSET 4.14528 8.04674 8.04672
            CHANNELS 3 Zrotation Xrotation Yrotation
            End Site
            {
              OFFSET 1 0 0
            }
          }
          JOINT rightEye
          {
            OFFSET -3.6576 8.04674 8.04672
            CHANNELS 3 Zrotation Xrotation Yrotation
            End Site
            {
              OFFSET 1 0 0
            }
          }
        }
      }
      JOINT rCollar
      {
        OFFSET -2.68224 19.2634 -4.8768
        CHANNELS 3 Zrotation Xrotation Yrotation
        JOINT rShldr
        {
          OFFSET -8.77824 -1.95073 1.46304
          CHANNELS 3 Zrotation Xrotation Yrotation
          JOINT rForeArm
          {
            OFFSET -28.1742 -1.7115 0.48768
            CHANNELS 3 Zrotation Xrotation Yrotation
            JOINT rHand
            {
              OFFSET -22.5879 0.773209 7.07136
              CHANNELS 3 Zrotation Xrotation Yrotation
              JOINT rThumb1
              {
                OFFSET -1.2192 -0.487915 3.41376
                CHANNELS 3 Zrotation Xrotation Yrotation
                JOINT rThumb2
                {
                  OFFSET -3.37035 -0.52449 3.41376
                  CHANNELS 3 Zrotation Xrotation Yrotation
                  End Site
                  {
                    OFFSET -1.78271 -1.18214 1.43049
                  }
                }
              }
              JOINT rIndex1
              {
                OFFSET -7.75947 0.938293 5.60832
                CHANNELS 3 Zrotation Xrotation Yrotation
                JOINT rIndex2
                {
                  OFFSET -2.54057 -0.884171 1.56538
                  CHANNELS 3 Zrotation Xrotation Yrotation
                  End Site
                  {
                    OFFSET -1.62519 -0.234802 1.16502
                  }
                }
              }
              JOINT rMid1
              {
                OFFSET -8.24714 1.18213 3.41376
                CHANNELS 3 Zrotation Xrotation Yrotation
                JOINT rMid2
                {
                  OFFSET -3.10165 -0.590103 1.0647
                  CHANNELS 3 Zrotation Xrotation Yrotation
                  End Site
                  {
                    OFFSET -2.48547 -0.328903 0.83742
                  }
                }
              }
              JOINT rRing1
              {
                OFFSET -8.82822 0.546677 1.51678
                CHANNELS 3 Zrotation Xrotation Yrotation
                JOINT rRing2
                {
                  OFFSET -2.60934 -0.819778 -0.0198488
                  CHANNELS 3 Zrotation Xrotation Yrotation
                  End Site
                  {
                    OFFSET -2.33842 -0.294052 0.168128
                  }
                }
              }
              JOINT rPinky1
              {
                OFFSET -8.27202 -0.0477905 -0.4584
                CHANNELS 3 Zrotation Xrotation Yrotation
                JOINT rPinky2
                {
                  OFFSET -1.82734 -0.647385 -0.700984
                  CHANNELS 3 Zrotation Xrotation Yrotation
                  End Site
                  {
                    OFFSET -1.69225 -0.51767 -0.607171
                  }
                }
              }
            }
          }
        }
      }
      JOINT lCollar
      {
        OFFSET 2.68224 19.2634 -4.8768
        CHANNELS 3 Zrotation Xrotation Yrotation
        JOINT lShldr
        {
          OFFSET 8.77824 -1.95073 1.46304
          CHANNELS 3 Zrotation Xrotation Yrotation
          JOINT lForeArm
          {
            OFFSET 28.1742 -1.7115 0.48768
            CHANNELS 3 Zrotation Xrotation Yrotation
            JOINT lHand
            {
              OFFSET 22.5879 0.773209 7.07136
              CHANNELS 3 Zrotation Xrotation Yrotation
              JOINT lThumb1
              {
                OFFSET 1.2192 -0.487915 3.41376
                CHANNELS 3 Zrotation Xrotation Yrotation
                JOINT lThumb2
                {
                  OFFSET 3.37035 -0.52449 3.41376
                  CHANNELS 3 Zrotation Xrotation Yrotation
                  End Site
                  {
                    OFFSET 1.78271 -1.18214 1.43049
                  }
                }
              }
              JOINT lIndex1
              {
                OFFSET 7.75947 0.938293 5.60832
                CHANNELS 3 Zrotation Xrotation Yrotation
                JOINT lIndex2
                {
                  OFFSET 2.54057 -0.884171 1.56538
                  CHANNELS 3 Zrotation Xrotation Yrotation
                  End Site
                  {
                    OFFSET 1.62519 -0.234802 1.16502
                  }
                }
              }
              JOINT lMid1
              {
                OFFSET 8.24714 1.18213 3.41376
                CHANNELS 3 Zrotation Xrotation Yrotation
                JOINT lMid2
                {
                  OFFSET 3.10165 -0.590103 1.0647
                  CHANNELS 3 Zrotation Xrotation Yrotation
                  End Site
                  {
                    OFFSET 2.48547 -0.328903 0.83742
                  }
                }
              }
              JOINT lRing1
              {
                OFFSET 8.82822 0.546677 1.51678
                CHANNELS 3 Zrotation Xrotation Yrotation
                JOINT lRing2
                {
                  OFFSET 2.60934 -0.819778 -0.0198488
                  CHANNELS 3 Zrotation Xrotation Yrotation
                  End Site
                  {
                    OFFSET 2.33842 -0.294052 0.168128
                  }
                }
              }
              JOINT lPinky1
              {
                OFFSET 8.27202 -0.0477905 -0.4584
                CHANNELS 3 Zrotation Xrotation Yrotation
                JOINT lPinky2
                {
                  OFFSET 1.82734 -0.647385 -0.700984
                  CHANNELS 3 Zrotation Xrotation Yrotation
                  End Site
                  {
                    OFFSET 1.69225 -0.51767 -0.607171
                  }
                }
              }
            }
          }
        }
      }
    }
  }
  JOINT rButtock
  {
    OFFSET -8.77824 4.35084 1.2192
    CHANNELS 3 Zrotation Xrotation Yrotation
    JOINT rThigh
    {
      OFFSET 0 -1.70687 -2.19456
      CHANNELS 3 Zrotation Xrotation Yrotation
      JOINT rShin
      {
        OFFSET 0 -36.8199 0.73152
        CHANNELS 3 Zrotation Xrotation Yrotation
        JOINT rFoot
        {
          OFFSET 0.73152 -45.1104 -5.12064
          CHANNELS 3 Zrotation Xrotation Yrotation
          End Site
          {
            OFFSET -1.1221 -3.69964 12.103
          }
        }
      }
    }
  }
  JOINT lButtock
  {
    OFFSET 8.77824 4.35084 1.2192
    CHANNELS 3 Zrotation Xrotation Yrotation
    JOINT lThigh
    {
      OFFSET 0 -1.70687 -2.19456
      CHANNELS 3 Zrotation Xrotation Yrotation
      JOINT lShin
      {
        OFFSET 0 -36.8199 0.73152
        CHANNELS 3 Zrotation Xrotation Yrotation
        JOINT lFoot
        {
          OFFSET -0.73152 -45.1104 -5.12064
          CHANNELS 3 Zrotation Xrotation Yrotation
          End Site
          {
            OFFSET 1.1221 -3.69964 12.103
          }
        }
      }
    }
  }
}
MOTION
Frames:	5
Frame Time:	0.03333
0.0 0.0 0.0 0.0 0.0 0.0 0.0 0.0 0.0 0.0 0.0 0.0 0.0 0.0 0.0 0.0 0.0 0.0 0.0 0.0 0.0 0.0 0.0 0.0 0.0 0.0 0.0 0.0 0.0 0.0 0.0 0.0 0.0 0.0 0.0 0.0 0.0 0.0 0.0 0.0 0.0 0.0 0.0 0.0 0.0 0.0 0.0 0.0 0.0 0.0 0.0 0.0 0.0 0.0 0.0 0.0 0.0 0.0 0.0 0.0 0.0 0.0 0.0 0.0 0.0 0.0 0.0 0.0 0.0 0.0 0.0 0.0 0.0 0.0 0.0 0.0 0.0 0.0 0.0 0.0 0.0 0.0 0.0 0.0 0.0 0.0 0.0 0.0 0.0 0.0 0.0 0.0 0.0 0.0 0.0 0.0 0.0 0.0 0.0 0.0 0.0 0.0 0.0 0.0 0.0 0.0 0.0 0.0 0.0 0.0 0.0 0.0 0.0 0.0 0.0 0.0 0.0 0.0 0.0 0.0 0.0 0.0 0.0 0.0 0.0 0.0 0.0 0.0 0.0 0.0 0.0 0.0
-31.3263 73.51689999999999 -13.5959 0.106562 0.063299 2.814796 -2.250841 1.283339 -90.680789 4.298259 -1.089867 107.486463 -13.822559 25.895514 -96.684455 27.585612 16.224282 72.022813 0.001975 0.0 0.001381 0.001941 -0.0 -0.003692 -147.609736 29.249983 152.407776 -139.894961 75.035387 84.43109 -177.522485 7.897822 -94.20256 -9.112102 24.801566 0.862603 -173.724097 -11.394392 89.893789 -116.240099 14.859123 53.657028 -45.048132 39.280165 35.293087 -174.285286 -25.715507 110.966707 8.582968 -26.955859 -3.119253 120.148579 -78.030286 89.966483 -145.056856 -3.474545 -178.032816 12.239618 30.703948 -5.512991 -151.996691 36.537384 -147.43702 14.720891 38.677341 5.755857 7.044944 28.47064 -8.350447 -67.502368 -13.525402 3.480336 147.930975 -44.415943 -61.650048 -155.578195 -46.207021 -134.710132 -31.353477 -29.18191 -3.57277 147.321472 -52.158443 -135.531159 -15.69043 -28.193545 5.769 -4.571971 14.083781 -1.638381 -52.858519 -77.717249 -25.450046 153.250002 22.116096 -137.908187 145.117417 2.890889 -179.965198 157.124327 23.378228 -178.090577 142.828657 5.033074 139.719676 112.73672 -41.864917 111.254596 0.00139 0.000354 0.002545 3.470891 -35.3645 -5.641167 1.790157 73.66955 130.785587 154.97244 24.697937 134.330409 179.968079 75.748107 0.025977 171.635885 38.270761 -175.05126 25.189975 -66.648847 126.58062 177.752918 13.431845 -91.528711
-31.3444 73.4835 -13.6009 0.031655 0.031366 2.785696 -2.219493 1.156525 -95.186555 4.23513 -0.726557 112.028257 7.241045 23.512663 105.091562 -23.955347 14.442163 -126.785381 0.000873 0.0 0.001756 0.000566 0.0 0.001146 2.593501 -19.48975 -3.906999 -99.599167 -15.507525 170.165368 23.905738 69.542036 -140.696988 172.424072 -14.306626 143.913765 -172.782944 -10.460787 89.927463 168.619607 -26.995287 98.505753 -159.412993 -31.954759 122.673705 -7.230158 32.612271 0.70858 -176.927412 -52.669649 143.62869 -169.421801 -22.882862 143.983884 -0.014085 -1.295849 -0.408797 8.913928 16.579573 2.25773 5.440229 16.127713 4.895793 -152.449168 28.662573 -147.072353 -2.013202 -14.24354 2.918246 58.091489 -48.093608 108.417804 178.63806 18.45738 77.865259 9.864855 30.219263 -1.681655 141.857272 18.122284 -82.95489 20.021293 -27.900075 -20.516698 130.358874 15.843561 -109.357494 57.328165 55.029666 -38.934114 -176.822244 -62.358257 -140.184646 10.173836 30.742684 -8.20499 0.003467 -0.334119 0.105092 64.28211 78.722121 -77.650458 6.744202 -14.96644 6.344462 161.837231 62.812621 149.925675 179.998744 75.749941 -5e-06 -176.749871 38.016419 171.95229 -10.994697 -72.134604 -91.439922 -178.692864 67.618736 83.644827 0.031601 -0.000292 0.02556 -7.271697 -34.882939 -37.010952 -61.963626 43.101518 -36.40632 -96.586939 82.17253 -160.320032
-31.3468 73.459 -13.605900000000002 0.019571 0.013362 2.756649 -2.292786 0.739788 -106.820146 3.869277 0.120833 123.664965 -9.561208 30.867725 -134.272886 19.395454 29.727801 107.965915 0.002024 0.0 0.002537 -0.003687 -0.0 0.00291 -139.583019 44.841904 143.804163 131.209914 4.445238 151.366967 100.607026 -83.29969 -24.477094 171.758719 -16.408427 143.675408 -87.535465 38.539299 49.166618 28.275011 -30.508589 21.720882 15.560351 -27.952879 -5.751287 -175.827342 -36.410014 106.913915 -3.688599 10.067731 2.258318 -4.96981 21.444042 4.449127 0.003575 0.717461 0.225373 6.190325 33.218563 5.469324 -164.64069 76.229673 -150.104551 -52.935993 -51.906292 -52.215593 154.140929 4.549032 -160.030539 -131.315758 -10.074558 -134.776452 -173.166598 -11.571089 -38.99726 -171.410842 -13.538323 -144.328747 22.005315 19.269383 -7.012978 155.178138 -55.288317 -103.405959 -35.521164 -56.35819 1.529438 4.929776 28.589715 -5.878755 -10.798198 -33.736888 3.266493 177.370117 -43.897247 -142.556398 0.215347 -7.555668 2.391593 32.732457 -85.886277 54.699425 112.088551 -40.4925 110.128672 -157.717043 83.876658 116.08059 -179.995164 75.750617 -0.004179 -176.810966 38.009728 170.343166 28.012376 -77.365775 46.055967 -108.754184 34.712376 -145.607762 -179.995164 75.750617 -0.004179 171.383837 40.478753 5.784133 10.358472 69.520769 79.721147 -63.929515 45.821167 -46.978898
-31.3544 73.4313 -13.6109 -0.049495 0.018588 2.740865 -2.528378 2.756349 -57.891406 4.471416 -3.664119 74.87167 5.596323 28.195477 134.145396 -19.143344 25.987197 -154.481863 0.002161 0.0 0.001305 0.002124 -0.0 -0.003766 -152.36853 13.08953 157.843708 -58.173698 -26.969041 -7.261172 -20.708972 -79.22262 62.860786 -6.844207 18.043382 0.085299 -27.146058 22.807462 9.512345 -162.158725 -57.502664 97.864714 -165.754386 -42.391985 122.269773 -87.497547 55.818481 71.28418 -153.975206 12.049425 139.313604 -167.609398 -18.087783 143.862235 -5.200598 -37.802493 -14.238374 10.340302 -62.960568 -11.704136 13.522331 46.461779 11.09197 16.145265 48.92568 8.635526 0.489966 2.83958 -0.644465 100.17936 -25.560165 152.709261 -167.138809 -20.051141 82.668071 16.335677 44.035749 -5.080505 133.419458 23.914267 -78.848883 141.163637 -10.214596 -70.349303 -89.278487 -75.539201 -40.480331 111.289615 42.751562 -93.337281 10.572909 25.058338 -7.31985 -160.93048 -68.834276 -127.320877 145.075167 -2.697825 178.278782 151.932665 -26.29887 175.084965 -7.960379 24.928293 -7.028948 100.973811 -49.979279 99.72277 179.998102 75.748025 0.001991 -176.328575 37.999455 -169.102891 -24.829856 -68.870044 84.105586 107.256672 44.050022 2.891066 179.994199 75.749711 0.005029 171.128944 40.405619 15.620195 5.410399 73.407135 -146.728915 -134.090012 24.589623 -149.496119
